<svg viewBox="0 0 100 100" fill="none" xmlns="http://www.w3.org/2000/svg">
  <path
    d="M81.25 71.875V32.8125L78.125 29.6875H21.875L18.75 32.8125V71.875H9.375L12.5 78.125H87.5L90.625 71.875H81.25ZM25 71.875V35.9375H75V71.875H25Z"
    fill="#0051c3" />
  <path
    d="M45.0205 51.3521H44.9784C44.4395 51.3521 44 51.7929 44 52.3305V56.5904C44 57.1301 44.4395 57.5695 44.9784 57.5695H45.0212C45.5602 57.5695 45.9996 57.1287 45.9996 56.5904V52.3304C45.9989 51.7929 45.5588 51.3521 45.0205 51.3521Z"
    fill="#0051c3" />
  <path
    d="M46.4678 58.2344C46.4678 58.7292 46.8722 59.1322 47.367 59.1322H48.3279V61.4332C48.3279 61.9735 48.7688 62.413 49.3063 62.413H49.3484C49.8881 62.413 50.3282 61.9728 50.3282 61.4332V59.1322H51.6711V61.4332C51.6711 61.9735 52.1133 62.413 52.6509 62.413H52.6923C53.2319 62.413 53.6714 61.9728 53.6714 61.4332V59.1322H54.633C55.1271 59.1322 55.5315 58.7292 55.5315 58.2344V51.5081H46.4678V58.2344Z"
    fill="#0051c3" />
  <path
    d="M53.2571 47.4291L54.0204 46.2509C54.0695 46.1766 54.0477 46.075 53.9727 46.0266C53.8985 45.9776 53.7968 45.9979 53.7485 46.0743L52.9572 47.2931C52.3636 47.0499 51.7005 46.9133 51.0003 46.9133C50.2994 46.9133 49.6378 47.0499 49.0428 47.2931L48.2529 46.0743C48.2046 45.9979 48.1022 45.9776 48.0272 46.0266C47.9522 46.075 47.9305 46.1766 47.9796 46.2509L48.7435 47.4291C47.3663 48.104 46.4376 49.3761 46.4376 50.8353C46.4376 50.925 46.4432 51.0134 46.4509 51.101H55.5504C55.5581 51.0134 55.563 50.925 55.563 50.8353C55.563 49.3761 54.6337 48.104 53.2571 47.4291ZM48.8907 49.5387C48.6489 49.5387 48.4526 49.3439 48.4526 49.1014C48.4526 48.8589 48.6489 48.6647 48.8907 48.6647C49.1339 48.6647 49.3287 48.8589 49.3287 49.1014C49.3287 49.3439 49.1325 49.5387 48.8907 49.5387ZM53.1093 49.5387C52.8675 49.5387 52.6712 49.3439 52.6712 49.1014C52.6712 48.8589 52.8675 48.6647 53.1093 48.6647C53.3518 48.6647 53.5466 48.8589 53.5466 49.1014C53.5466 49.3439 53.3518 49.5387 53.1093 49.5387Z"
    fill="#0051c3" />
  <path
    d="M57.0208 51.3521H56.9802C56.4412 51.3521 56.0004 51.7929 56.0004 52.3305V56.5904C56.0004 57.1301 56.4419 57.5695 56.9802 57.5695H57.0216C57.5612 57.5695 58 57.1287 58 56.5904V52.3304C58 51.7929 57.5598 51.3521 57.0208 51.3521Z"
    fill="#0051c3" />
</svg>