<svg viewBox="0 0 100 100" fill="none" xmlns="http://www.w3.org/2000/svg">
  <path
    d="M65.625 21.875H34.375L31.25 25V75L34.375 78.125H65.625L68.75 75V25L65.625 21.875ZM62.5 71.875H37.5V28.125H44.7656V29.9375H55.2344V28.125H62.5V71.875Z"
    fill="#0051c3" />
  <path
    d="M44.0205 47.352H43.9784C43.4395 47.352 43 47.7928 43 48.3304V52.5903C43 53.13 43.4395 53.5694 43.9784 53.5694H44.0212C44.5602 53.5694 44.9996 53.1286 44.9996 52.5903V48.3304C44.9989 47.7928 44.5588 47.352 44.0205 47.352Z"
    fill="#0051c3" />
  <path
    d="M45.4678 54.2344C45.4678 54.7292 45.8722 55.1322 46.367 55.1322H47.3279V57.4332C47.3279 57.9735 47.7688 58.413 48.3063 58.413H48.3484C48.8881 58.413 49.3282 57.9728 49.3282 57.4332V55.1322H50.6711V57.4332C50.6711 57.9735 51.1133 58.413 51.6509 58.413H51.6923C52.2319 58.413 52.6714 57.9728 52.6714 57.4332V55.1322H53.633C54.1271 55.1322 54.5315 54.7292 54.5315 54.2344V47.5081H45.4678V54.2344Z"
    fill="#0051c3" />
  <path
    d="M52.2571 43.4291L53.0204 42.2509C53.0695 42.1766 53.0477 42.075 52.9727 42.0266C52.8985 41.9776 52.7968 41.9979 52.7485 42.0743L51.9572 43.2931C51.3636 43.0499 50.7005 42.9133 50.0003 42.9133C49.2994 42.9133 48.6378 43.0499 48.0428 43.2931L47.2529 42.0743C47.2046 41.9979 47.1022 41.9776 47.0272 42.0266C46.9522 42.075 46.9305 42.1766 46.9796 42.2509L47.7435 43.4291C46.3663 44.104 45.4376 45.3761 45.4376 46.8353C45.4376 46.925 45.4432 47.0134 45.4509 47.101H54.5504C54.5581 47.0134 54.563 46.925 54.563 46.8353C54.563 45.3761 53.6337 44.104 52.2571 43.4291ZM47.8907 45.5387C47.6489 45.5387 47.4526 45.3439 47.4526 45.1014C47.4526 44.8589 47.6489 44.6647 47.8907 44.6647C48.1339 44.6647 48.3287 44.8589 48.3287 45.1014C48.3287 45.3439 48.1325 45.5387 47.8907 45.5387ZM52.1093 45.5387C51.8675 45.5387 51.6712 45.3439 51.6712 45.1014C51.6712 44.8589 51.8675 44.6647 52.1093 44.6647C52.3518 44.6647 52.5466 44.8589 52.5466 45.1014C52.5466 45.3439 52.3518 45.5387 52.1093 45.5387Z"
    fill="#0051c3" />
  <path
    d="M56.0208 47.352H55.9802C55.4412 47.352 55.0004 47.7928 55.0004 48.3304V52.5903C55.0004 53.13 55.4419 53.5694 55.9802 53.5694H56.0216C56.5612 53.5694 57 53.1286 57 52.5903V48.3304C57 47.7928 56.5598 47.352 56.0208 47.352Z"
    fill="#0051c3" />
</svg>