<svg viewBox="0 0 100 100" fill="none" xmlns="http://www.w3.org/2000/svg">
  <path
    d="M75 14.0625H25L21.875 17.1875V81.25L25 84.375H75L78.125 81.25V17.1875L75 14.0625ZM71.875 78.125H28.125V20.3125H43.75V22.3438H56.25V20.3125H71.875V78.125Z"
    fill="#0051c3" />
  <path
    d="M46.0198 52.7316C46.4745 53.376 47.1577 54 47.944 54C48.3914 54 48.7714 53.76 49.1798 53.5848C49.556 53.4267 49.9537 53.3454 50.3546 53.3448C50.7414 53.3423 51.1247 53.4279 51.482 53.5968C51.6714 53.688 51.8588 53.7852 52.0515 53.8692C52.2469 53.9552 52.4546 53.9995 52.6641 54C53.0517 53.9949 53.4289 53.8565 53.7462 53.6028C54.6683 52.8828 55.3515 51.618 55.8357 50.5104C55.8842 50.4 55.9305 50.2884 55.9768 50.178C56.0536 49.9932 55.9326 49.7592 55.7178 49.6248C54.7705 49.032 54.2157 48.1152 54.1231 46.8504C54.0304 45.5856 54.462 44.5872 55.3284 43.8624L55.4989 43.7028C55.5936 43.614 55.542 43.368 55.3642 43.176C54.7089 42.4404 53.831 42.0195 52.9115 42C52.733 42.0001 52.5549 42.017 52.3788 42.0504C51.5788 42.2064 50.9367 42.6408 50.183 42.6408C49.9543 42.6411 49.727 42.6006 49.5093 42.5208C48.8777 42.2904 48.2503 42 47.5787 42C47.5051 42 47.4303 42 47.3556 42.0108C46.5276 42.1114 45.7545 42.5309 45.164 43.2C43.9997 44.508 43.8345 46.5396 44.125 48.2568C44.4039 49.92 45.0903 51.4188 46.0198 52.7316Z"
    fill="#0051c3" />
  <path
    d="M50.0521 42.2816C50.036 42.283 50.0198 42.283 50.0037 42.2816C49.9751 42.2831 49.9465 42.2789 49.9195 42.2691C49.8926 42.2593 49.8678 42.2442 49.8468 42.2247C49.8258 42.2051 49.809 42.1816 49.7973 42.1554C49.7856 42.1292 49.7793 42.101 49.7787 42.0723C49.7854 41.4253 50.0353 39.6934 52.4367 39.1375C52.4562 39.133 52.4762 39.1307 52.4963 39.1308C52.5234 39.1292 52.5505 39.1333 52.5759 39.1427C52.6014 39.1521 52.6246 39.1666 52.6441 39.1855C52.6637 39.2043 52.6791 39.2269 52.6895 39.252C52.6999 39.277 52.705 39.3039 52.7045 39.3311C52.6898 40.0017 52.4299 41.8382 50.0521 42.2816Z"
    fill="#0051c3" />
</svg>