<svg viewBox="0 0 100 100" fill="none" xmlns="http://www.w3.org/2000/svg">
  <path
    d="M81.25 71.875V32.8125L78.125 29.6875H21.875L18.75 32.8125V71.875H9.375L12.5 78.125H87.5L90.625 71.875H81.25ZM25 71.875V35.9375H75V71.875H25Z"
    fill="#0051c3" />
  <path
    d="M45.8539 59.7507C46.3276 60.3395 47.0392 60.9097 47.8583 60.9097C48.3244 60.9097 48.7202 60.6904 49.1456 60.5303C49.5375 60.3858 49.9517 60.3116 50.3694 60.311C50.7722 60.3087 51.1715 60.387 51.5437 60.5413C51.7411 60.6246 51.9363 60.7134 52.1369 60.7902C52.3405 60.8688 52.5569 60.9093 52.7751 60.9097C53.1788 60.9051 53.5717 60.7786 53.9023 60.5468C54.8629 59.8889 55.5745 58.7331 56.0789 57.721C56.1293 57.6202 56.1776 57.5182 56.2258 57.4173C56.3059 57.2484 56.1798 57.0346 55.9561 56.9118C54.9692 56.3701 54.3914 55.5324 54.2949 54.3767C54.1984 53.221 54.6479 52.3087 55.5504 51.6464L55.728 51.5005C55.8267 51.4194 55.773 51.1946 55.5877 51.0192C54.9051 50.347 53.9906 49.9624 53.0328 49.9446C52.8469 49.9447 52.6613 49.9601 52.4779 49.9906C51.6446 50.1332 50.9757 50.5301 50.1906 50.5301C49.9524 50.5304 49.7156 50.4934 49.4889 50.4205C48.8309 50.2099 48.1774 49.9446 47.4779 49.9446C47.4011 49.9446 47.3232 49.9446 47.2454 49.9544C46.3829 50.0464 45.5776 50.4297 44.9625 51.0411C43.7497 52.2363 43.5776 54.0927 43.8802 55.6618C44.1708 57.1816 44.8857 58.5511 45.8539 59.7507Z"
    fill="#0051c3" />
  <path
    d="M50.1566 49.9455C50.1409 49.9469 50.1251 49.9469 50.1094 49.9455C50.0815 49.947 50.0536 49.9429 50.0274 49.9333C50.0011 49.9238 49.977 49.9091 49.9566 49.8901C49.9361 49.871 49.9197 49.8481 49.9083 49.8226C49.8968 49.7971 49.8907 49.7695 49.8901 49.7416C49.8967 49.1111 50.1401 47.4236 52.4801 46.8819C52.4992 46.8775 52.5187 46.8753 52.5382 46.8753C52.5646 46.8738 52.591 46.8778 52.6158 46.8869C52.6406 46.8961 52.6632 46.9103 52.6823 46.9286C52.7013 46.9469 52.7164 46.969 52.7265 46.9934C52.7366 47.0178 52.7416 47.0441 52.7411 47.0705C52.7268 47.724 52.4735 49.5135 50.1566 49.9455Z"
    fill="#0051c3" />
</svg>