<svg viewBox="0 0 100 100" fill="none" xmlns="http://www.w3.org/2000/svg">
  <path
    d="M65.625 21.875H34.375L31.25 25V75L34.375 78.125H65.625L68.75 75V25L65.625 21.875ZM62.5 71.875H37.5V28.125H44.7656V29.9375H55.2344V28.125H62.5V71.875Z"
    fill="#0051c3" />
  <path
    d="M45.6761 55.5388C46.1098 56.0779 46.7613 56.5999 47.5111 56.5999C47.9378 56.5999 48.3002 56.3991 48.6897 56.2526C49.0484 56.1203 49.4276 56.0523 49.8099 56.0518C50.1788 56.0497 50.5443 56.1214 50.8851 56.2626C51.0658 56.3389 51.2444 56.4202 51.4281 56.4905C51.6145 56.5624 51.8126 56.5995 52.0124 56.5999C52.382 56.5957 52.7417 56.4799 53.0443 56.2676C53.9237 55.6653 54.5752 54.6073 55.037 53.6807C55.0831 53.5884 55.1273 53.495 55.1715 53.4027C55.2448 53.2481 55.1293 53.0523 54.9245 52.9399C54.0211 52.444 53.492 51.6771 53.4037 50.619C53.3154 49.561 53.7269 48.7258 54.5531 48.1194L54.7157 47.9859C54.8061 47.9116 54.7569 47.7058 54.5872 47.5452C53.9623 46.9299 53.1252 46.5777 52.2483 46.5615C52.0781 46.5615 51.9082 46.5756 51.7403 46.6036C50.9774 46.7341 50.3651 47.0975 49.6463 47.0975C49.4282 47.0977 49.2115 47.0639 49.0039 46.9971C48.4015 46.8044 47.8033 46.5615 47.1628 46.5615C47.0925 46.5615 47.0213 46.5615 46.95 46.5705C46.1604 46.6546 45.4232 47.0056 44.86 47.5653C43.7497 48.6595 43.5921 50.359 43.8692 51.7955C44.1352 53.1868 44.7897 54.4406 45.6761 55.5388Z"
    fill="#0051c3" />
  <path
    d="M49.6155 46.5611C49.6011 46.5623 49.5867 46.5623 49.5723 46.5611C49.5467 46.5624 49.5212 46.5586 49.4971 46.5499C49.4731 46.5412 49.4511 46.5277 49.4323 46.5103C49.4136 46.4928 49.3986 46.4718 49.3881 46.4485C49.3777 46.4251 49.372 46.3999 49.3715 46.3743C49.3775 45.7971 49.6004 44.2522 51.7426 43.7563C51.7601 43.7523 51.7779 43.7503 51.7958 43.7503C51.82 43.7489 51.8441 43.7525 51.8668 43.7609C51.8895 43.7693 51.9102 43.7823 51.9277 43.7991C51.9451 43.8159 51.9589 43.8361 51.9682 43.8584C51.9774 43.8808 51.982 43.9048 51.9815 43.929C51.9685 44.5273 51.7366 46.1655 49.6155 46.5611Z"
    fill="#0051c3" />
</svg>