<svg viewBox="0 0 64 64" fill="none" xmlns="http://www.w3.org/2000/svg">
  <path
    d="M8.74469 7.15214V9.80217C8.74469 11.9501 8.7307 12.4662 8.67008 12.5173C8.61879 12.5591 8.47424 12.4987 8.05924 12.2569C6.54846 11.3875 5.54128 10.746 5.53661 10.639C5.53661 10.5925 5.53661 10.4531 5.54128 10.3275C5.54594 10.202 5.50397 9.98349 5.44802 9.83007C5.39207 9.6813 5.34544 9.54182 5.34544 9.52787C5.34544 9.47208 8.35767 6.74302 8.41828 6.74302C8.43227 6.74302 8.51154 6.836 8.59547 6.94758L8.74469 7.15214Z"
    fill="#0051c3" />
  <path
    d="M12.4144 10.5507C12.3911 10.6437 12.018 10.8947 10.0223 12.1454C9.65395 12.3778 9.33687 12.5684 9.32755 12.5638C9.23895 12.5638 9.2203 12.164 9.20631 9.79288L9.19232 7.14749L9.50008 6.94293C9.66794 6.83135 9.83114 6.73837 9.86378 6.73837C9.95704 6.73837 10.358 7.17539 11.4492 8.46321L12.4657 9.66735L12.4517 10.0579C12.447 10.2764 12.4284 10.4949 12.4144 10.5507Z"
    fill="#0051c3" />
  <path fill-rule="evenodd" clip-rule="evenodd"
    d="M9.05769 0.0667841C9.02885 0.0238513 9.00962 0 8.99039 0C8.97596 0 8.96154 0.0190811 8.95192 0.0572436C8.94231 0.0954061 6.9327 2.48533 4.47598 5.37614C2.01926 8.26695 0.00964996 10.6473 3.4609e-05 10.6712C-0.00958074 10.695 1.9856 12.3265 4.43271 14.3062C6.87982 16.2858 8.90866 17.9316 8.94231 17.965C9 18.0222 9.00962 18.0175 9.16827 17.8887C9.25962 17.8123 11.2836 16.1761 13.6634 14.2537C16.0432 12.3313 17.9952 10.7427 18 10.7284C18.0096 10.7141 16.0096 8.32419 13.5577 5.41907C11.1058 2.51395 9.08173 0.104947 9.05769 0.0667841ZM7.93334 14.2886C8.06857 14.549 8.39497 14.8279 8.66542 14.9256C8.9312 15.0232 9.12238 15.0232 9.43946 14.9349C9.75187 14.8419 10.1109 14.5397 10.2555 14.2375C10.386 13.9632 10.4 13.5262 10.2834 13.2472C10.1622 12.9636 10.1809 12.8939 10.414 12.7033C10.7964 12.3964 12.517 11.2202 12.6289 11.1923C12.6942 11.1737 12.8527 11.2295 13.0579 11.3411C13.333 11.4898 13.4309 11.5177 13.692 11.5177C14.065 11.5177 14.2702 11.4387 14.55 11.1876C14.9463 10.8296 15.1095 10.2345 14.923 9.79288C14.6339 9.1048 13.9018 8.79795 13.2071 9.07225C13.0579 9.12804 12.8993 9.17454 12.8527 9.17454C12.8061 9.17454 12.6662 9.05831 12.5403 8.91418C11.8269 8.08663 10.4793 6.46407 10.4 6.32924C10.3068 6.17582 10.3068 6.17117 10.4047 5.92011C10.7684 5.01352 10.0923 4 9.12238 4C8.70738 4 8.49289 4.06974 8.20379 4.29755C7.67222 4.71597 7.51834 5.41335 7.82143 6.04099L7.97065 6.35248L7.47172 6.8267C6.74897 7.51013 5.25218 8.87234 5.06566 9.01181C4.90712 9.13269 4.90246 9.13269 4.65066 9.04901C4.18904 8.89559 3.70876 9.01646 3.34972 9.37445C3.08393 9.63945 3 9.85332 3 10.2671C3 10.6948 3.09326 10.904 3.415 11.2016C3.86264 11.6154 4.43151 11.6525 4.97707 11.3085C5.14493 11.2016 5.23819 11.169 5.29414 11.2016C5.33611 11.2248 5.94695 11.5549 6.64638 11.9315C7.34582 12.3081 7.96598 12.6521 8.01728 12.6893C8.11053 12.7591 8.11053 12.7684 7.96598 13.0659C7.77947 13.4657 7.76548 13.9678 7.93334 14.2886Z"
    fill="#0051c3" />
</svg>