<svg viewBox="0 0 100 100" fill="none" xmlns="http://www.w3.org/2000/svg">
  <path
    d="M81.25 71.875V32.8125L78.125 29.6875H21.875L18.75 32.8125V71.875H9.375L12.5 78.125H87.5L90.625 71.875H81.25ZM25 71.875V35.9375H75V71.875H25Z"
    fill="#0051c3" />
  <path
    d="M59.5488 52.261C59.523 52.1853 59.4726 52.1192 59.4047 52.0723C59.3369 52.0255 59.2551 52.0001 59.1711 52H53.859C53.784 52 53.7105 52.0202 53.6471 52.0582C53.5836 52.0963 53.533 52.1507 53.5009 52.215C53.4689 52.2793 53.4568 52.3509 53.4661 52.4215C53.4754 52.492 53.5057 52.5586 53.5535 52.6135C54.1382 53.2855 54.458 54.1291 54.4583 55C54.4583 55.6458 54.2786 56.2855 53.9445 56.8435C53.9346 56.8594 53.9258 56.8759 53.9184 56.893L50.1255 63.4427C50.0947 63.5013 50.0804 63.5663 50.0838 63.6316C50.0873 63.6969 50.1085 63.7602 50.1453 63.8155C50.1833 63.872 50.2357 63.9186 50.2977 63.9508C50.3597 63.9831 50.4293 64 50.5 64C55.7385 64 60 59.9628 60 55C60 54.0693 59.848 53.1475 59.5488 52.261Z"
    fill="#0051c3" />
  <path
    d="M46.0706 53.779C46.1056 53.8354 46.1556 53.8822 46.2156 53.9147C46.2756 53.9472 46.3435 53.9643 46.4126 53.9643C46.4245 53.9643 46.4364 53.9642 46.4482 53.9627C46.5231 53.9562 46.5944 53.9297 46.6539 53.8863C46.7135 53.8428 46.7588 53.7843 46.7847 53.7175C47.0635 52.9958 47.5691 52.3723 48.2334 51.9311C48.8977 51.49 49.6887 51.2522 50.5 51.25H58.4966C58.5654 51.2503 58.6332 51.2335 58.693 51.2013C58.7529 51.1692 58.8029 51.1228 58.838 51.0667C58.8731 51.0106 58.8922 50.9468 58.8932 50.8816C58.8943 50.8164 58.8774 50.7521 58.8442 50.695C58.027 49.2743 56.8207 48.0885 55.3524 47.2623C53.884 46.4361 52.2078 46.0001 50.5 46C49.1654 46.0025 47.8463 46.271 46.6285 46.7882C45.4106 47.3053 44.3213 48.0594 43.4312 49.0015C43.3752 49.0606 43.3404 49.1349 43.3319 49.2139C43.3233 49.2929 43.3415 49.3724 43.3837 49.441L46.0706 53.779Z"
    fill="#0051c3" />
  <path
    d="M51.6345 58.8295C51.59 58.7722 51.5295 58.728 51.4598 58.7019C51.39 58.6757 51.3139 58.6688 51.2402 58.6817C49.55 58.9885 47.9295 58.243 47.0737 56.8772L43.0449 50.374C42.9728 50.2592 42.8303 50.1557 42.7029 50.1887C42.6346 50.1887 42.5674 50.2054 42.5079 50.2372C42.4484 50.269 42.3986 50.3148 42.3632 50.3702C41.4738 51.7677 41.0026 53.3681 41 55C41 59.2997 44.2316 63.0137 48.6839 63.8312C48.7662 63.8461 48.8514 63.8359 48.9272 63.8021C49.003 63.7682 49.0655 63.7126 49.1059 63.643L51.6614 59.23C51.6974 59.1677 51.714 59.0969 51.7092 59.026C51.7045 58.9551 51.6785 58.887 51.6345 58.8295Z"
    fill="#0051c3" />
  <path
    d="M47.3333 55C47.3333 56.6545 48.7536 58 50.5 58C52.2464 58 53.6667 56.6545 53.6667 55C53.6667 53.3455 52.2464 52 50.5 52C48.7536 52 47.3333 53.3455 47.3333 55Z"
    fill="#0051c3" />
</svg>