<svg viewBox="0 0 100 100" fill="none" xmlns="http://www.w3.org/2000/svg">
  <path
    d="M65.625 21.875H34.375L31.25 25V75L34.375 78.125H65.625L68.75 75V25L65.625 21.875ZM62.5 71.875H37.5V28.125H44.7656V29.9375H55.2344V28.125H62.5V71.875Z"
    fill="#0051c3" />
  <path
    d="M56.6675 47.5218C56.6485 47.4671 56.6114 47.4194 56.5614 47.3856C56.5114 47.3517 56.4511 47.3334 56.3892 47.3333H52.4751C52.4198 47.3333 52.3656 47.3479 52.3189 47.3754C52.2722 47.4029 52.2348 47.4421 52.2112 47.4886C52.1876 47.535 52.1787 47.5868 52.1856 47.6377C52.1924 47.6887 52.2147 47.7368 52.2499 47.7764C52.6808 48.2617 52.9165 48.871 52.9167 49.5C52.9167 49.9664 52.7843 50.4284 52.5381 50.8314C52.5307 50.8429 52.5243 50.8548 52.5188 50.8672L49.7241 55.5975C49.7014 55.6398 49.6908 55.6868 49.6934 55.7339C49.6959 55.7811 49.7115 55.8268 49.7387 55.8668C49.7666 55.9076 49.8053 55.9412 49.8509 55.9645C49.8966 55.9878 49.9479 56 50 56C53.8599 56 57 53.0842 57 49.5C57 48.8278 56.888 48.1621 56.6675 47.5218Z"
    fill="#0051c3" />
  <path
    d="M46.7362 48.6182C46.7621 48.6589 46.7989 48.6927 46.8431 48.7162C46.8873 48.7396 46.9373 48.752 46.9882 48.752C46.997 48.752 47.0057 48.752 47.0145 48.7509C47.0696 48.7461 47.1222 48.727 47.1661 48.6956C47.2099 48.6643 47.2433 48.622 47.2624 48.5738C47.4679 48.0525 47.8404 47.6022 48.3299 47.2836C48.8194 46.965 49.4022 46.7933 50 46.7917H55.8922C55.943 46.7919 55.9928 46.7797 56.037 46.7565C56.0811 46.7333 56.1179 46.6998 56.1438 46.6593C56.1697 46.6188 56.1837 46.5727 56.1845 46.5256C56.1853 46.4785 56.1728 46.4321 56.1483 46.3908C55.5462 45.3648 54.6574 44.5084 53.5754 43.9117C52.4935 43.315 51.2584 43.0001 50 43C49.0166 43.0018 48.0447 43.1958 47.1473 43.5692C46.2499 43.9427 45.4472 44.4873 44.7914 45.1678C44.7501 45.2104 44.7245 45.2641 44.7182 45.3212C44.7119 45.3782 44.7253 45.4356 44.7564 45.4852L46.7362 48.6182Z"
    fill="#0051c3" />
  <path
    d="M50.8359 52.2657C50.8032 52.2244 50.7586 52.1925 50.7072 52.1736C50.6558 52.1547 50.5997 52.1497 50.5454 52.159C49.3 52.3806 48.1059 51.8421 47.4753 50.8558L44.5067 46.159C44.4537 46.0761 44.3487 46.0014 44.2547 46.0252C44.2044 46.0252 44.1549 46.0372 44.1111 46.0602C44.0672 46.0832 44.0305 46.1163 44.0045 46.1563C43.3491 47.1656 43.0019 48.3214 43 49.5C43 52.6054 45.3812 55.2877 48.6618 55.8781C48.7225 55.8888 48.7852 55.8815 48.8411 55.857C48.8969 55.8326 48.943 55.7924 48.9727 55.7421L50.8557 52.555C50.8823 52.51 50.8945 52.4589 50.891 52.4077C50.8875 52.3565 50.8684 52.3072 50.8359 52.2657Z"
    fill="#0051c3" />
  <path
    d="M47.6667 49.5C47.6667 50.6949 48.7132 51.6667 50 51.6667C51.2868 51.6667 52.3333 50.6949 52.3333 49.5C52.3333 48.3051 51.2868 47.3333 50 47.3333C48.7132 47.3333 47.6667 48.3051 47.6667 49.5Z"
    fill="#0051c3" />
</svg>