<svg viewBox="0 0 100 100" fill="none" xmlns="http://www.w3.org/2000/svg">
  <path
    d="M75 14.0625H25L21.875 17.1875V81.25L25 84.375H75L78.125 81.25V17.1875L75 14.0625ZM71.875 78.125H28.125V20.3125H43.75V22.3438H56.25V20.3125H71.875V78.125Z"
    fill="#0051c3" />
  <path
    d="M59.5013 45.9567C59.4728 45.8725 59.417 45.7991 59.3421 45.747C59.2671 45.6949 59.1767 45.6668 59.0839 45.6667H53.2126C53.1297 45.6666 53.0484 45.6891 52.9783 45.7314C52.9082 45.7737 52.8522 45.8341 52.8168 45.9055C52.7814 45.977 52.7681 46.0565 52.7784 46.135C52.7886 46.2134 52.8221 46.2874 52.8749 46.3483C53.5211 47.095 53.8747 48.0324 53.875 49C53.875 49.7175 53.6764 50.4283 53.3071 51.0483C53.2961 51.066 53.2865 51.0844 53.2783 51.1033L49.0861 58.3808C49.0521 58.4458 49.0362 58.5181 49.04 58.5906C49.0439 58.6632 49.0673 58.7336 49.108 58.795C49.15 58.8578 49.2079 58.9095 49.2764 58.9454C49.3449 58.9812 49.4218 59 49.5 59C55.2899 59 60 54.5142 60 49C60 47.9658 59.832 46.9417 59.5013 45.9567Z"
    fill="#0051c3" />
  <path
    d="M44.6044 47.6433C44.6431 47.706 44.6983 47.758 44.7646 47.7941C44.8309 47.8302 44.906 47.8492 44.9824 47.8492C44.9955 47.8492 45.0086 47.8492 45.0217 47.8475C45.1044 47.8402 45.1833 47.8107 45.2491 47.7625C45.3149 47.7143 45.365 47.6493 45.3936 47.575C45.7018 46.7731 46.2606 46.0804 46.9948 45.5902C47.729 45.1 48.6033 44.8358 49.5 44.8333H58.3384C58.4144 44.8336 58.4893 44.815 58.5555 44.7793C58.6216 44.7436 58.6769 44.692 58.7157 44.6297C58.7545 44.5674 58.7755 44.4965 58.7767 44.424C58.7779 44.3516 58.7592 44.2801 58.7225 44.2167C57.8193 42.6381 56.4861 41.3206 54.8632 40.4026C53.2403 39.4846 51.3876 39.0001 49.5 39C48.0249 39.0028 46.567 39.3012 45.2209 39.8757C43.8749 40.4503 42.6709 41.2882 41.6871 42.335C41.6252 42.4006 41.5868 42.4833 41.5773 42.571C41.5679 42.6588 41.588 42.7471 41.6346 42.8233L44.6044 47.6433Z"
    fill="#0051c3" />
  <path
    d="M50.7539 53.255C50.7048 53.1914 50.6379 53.1422 50.5608 53.1132C50.4837 53.0842 50.3996 53.0764 50.3181 53.0908C48.45 53.4316 46.6589 52.6033 45.713 51.0858L41.2601 43.86C41.1805 43.7325 41.023 43.6175 40.8821 43.6541C40.8066 43.6541 40.7324 43.6727 40.6666 43.708C40.6009 43.7433 40.5458 43.7942 40.5067 43.8558C39.5237 45.4086 39.0029 47.1868 39 49C39 53.7775 42.5717 57.9041 47.4927 58.8125C47.5837 58.829 47.6778 58.8176 47.7616 58.7801C47.8454 58.7425 47.9146 58.6806 47.9591 58.6033L50.7836 53.7C50.8234 53.6307 50.8418 53.5521 50.8365 53.4734C50.8312 53.3946 50.8026 53.3188 50.7539 53.255Z"
    fill="#0051c3" />
  <path
    d="M46 49C46 50.8383 47.5697 52.3333 49.5 52.3333C51.4302 52.3333 53 50.8383 53 49C53 47.1617 51.4302 45.6667 49.5 45.6667C47.5697 45.6667 46 47.1617 46 49Z"
    fill="#0051c3" />
</svg>