<svg viewBox="0 0 64 64" fill="none" xmlns="http://www.w3.org/2000/svg">
    <path
        d="M51 12C49.5851 12.0012 48.2038 12.4312 47.0381 13.2333C45.8725 14.0354 44.9773 15.1718 44.4705 16.4929C43.9638 17.8139 43.8692 19.2576 44.1994 20.6334C44.5296 22.0093 45.2689 23.2528 46.32 24.2L40.55 36C39.5783 36.0129 38.6361 36.3351 37.86 36.92L27 31.5C27.0019 30.79 26.8358 30.0897 26.5152 29.4562C26.1947 28.8227 25.7288 28.2741 25.1556 27.8551C24.5824 27.4361 23.9183 27.1587 23.2174 27.0455C22.5165 26.9324 21.7987 26.9866 21.1228 27.2039C20.4469 27.4212 19.832 27.7953 19.3284 28.2957C18.8247 28.7962 18.4466 29.4086 18.225 30.0831C18.0033 30.7576 17.9444 31.475 18.053 32.1766C18.1617 32.8782 18.4348 33.5441 18.85 34.12L13.63 44C13.3869 43.9848 13.1431 43.9848 12.9 44C11.251 43.9995 9.65476 44.5812 8.39268 45.6425C7.13061 46.7039 6.28373 48.1767 6.00136 49.8013C5.71898 51.426 6.01923 53.0982 6.84919 54.5231C7.67914 55.948 8.9855 57.0342 10.538 57.5902C12.0904 58.1461 13.7893 58.1362 15.3352 57.562C16.881 56.9879 18.1745 55.8864 18.9877 54.4518C19.8009 53.0173 20.0815 51.3417 19.78 49.7204C19.4786 48.0992 18.6145 46.6364 17.34 45.59L22.39 36H22.5C23.4813 35.998 24.4343 35.671 25.21 35.07L36.07 40.46C36.0649 41.1772 36.2312 41.8852 36.5551 42.525C36.8791 43.1649 37.3513 43.718 37.9324 44.1384C38.5134 44.5587 39.1866 44.8341 39.8957 44.9416C40.6048 45.049 41.3293 44.9855 42.0088 44.7561C42.6883 44.5268 43.3032 44.1384 43.8022 43.6232C44.3012 43.1081 44.6698 42.4812 44.8773 41.7947C45.0849 41.1082 45.1254 40.382 44.9954 39.6767C44.8654 38.9714 44.5687 38.3074 44.13 37.74L49.92 25.94C50.2783 25.9843 50.6391 26.0044 51 26C52.8565 26 54.637 25.2625 55.9498 23.9497C57.2625 22.637 58 20.8565 58 19C58 17.1435 57.2625 15.363 55.9498 14.0503C54.637 12.7375 52.8565 12 51 12ZM12.9 54C12.3067 54 11.7267 53.8241 11.2333 53.4944C10.74 53.1648 10.3554 52.6962 10.1284 52.148C9.90132 51.5999 9.84191 50.9967 9.95767 50.4147C10.0734 49.8328 10.3591 49.2982 10.7787 48.8787C11.1983 48.4591 11.7328 48.1734 12.3148 48.0576C12.8967 47.9419 13.4999 48.0013 14.0481 48.2284C14.5963 48.4554 15.0648 48.8399 15.3944 49.3333C15.7241 49.8266 15.9 50.4067 15.9 51C15.9 51.7957 15.584 52.5587 15.0213 53.1213C14.4587 53.6839 13.6957 54 12.9 54ZM51 22C50.4067 22 49.8267 21.8241 49.3333 21.4944C48.84 21.1648 48.4554 20.6962 48.2284 20.1481C48.0013 19.5999 47.9419 18.9967 48.0577 18.4147C48.1734 17.8328 48.4591 17.2982 48.8787 16.8787C49.2983 16.4591 49.8328 16.1734 50.4148 16.0576C50.9967 15.9419 51.5999 16.0013 52.1481 16.2284C52.6963 16.4554 53.1648 16.8399 53.4944 17.3333C53.8241 17.8266 54 18.4067 54 19C54 19.7956 53.684 20.5587 53.1213 21.1213C52.5587 21.6839 51.7957 22 51 22Z"
        fill="#0051c3" />
</svg>