<svg xmlns="http://www.w3.org/2000/svg" fill="#0051c3" viewBox="0 0 64 64">
  <g clip-path="url(#a)">
    <path d="M52.061 51.3H14.218A14.25 14.25 0 0 1 0 37.081a14.6 14.6 0 0 1 5.2-11.03 13.612 13.612 0 0 1 9.693-3.189 19.29 19.29 0 0 1 36.973 4.588 11.61 11.61 0 0 1 8 2.722 12.044 12.044 0 0 1-7.8 21.126l-.005.002ZM13.993 26.832a9.547 9.547 0 0 0-6.221 2.281A10.558 10.558 0 0 0 4 37.081 10.235 10.235 0 0 0 14.189 47.3H52.06A7.95 7.95 0 0 0 60 39.358a8.118 8.118 0 0 0-2.728-6.141 8.28 8.28 0 0 0-6.914-1.617l-2.254.363-.063-2.282a15.285 15.285 0 0 0-29.886-4.061l-.518 1.687L15.9 27a11.054 11.054 0 0 0-1.907-.168Z"/>
  </g>
  <defs>
    <clipPath id="a">
      <path fill="#fff" d="M0 0h64v64H0z"/>
    </clipPath>
  </defs>
</svg>
