<svg viewBox="0 0 16 16" fill="none" xmlns="http://www.w3.org/2000/svg">
  <path
    d="M8.14642 16C3.65475 16 0 12.4117 0 8C0 3.58832 3.65475 0 8.14642 0C10.1813 0 12.129 0.740489 13.6327 2.0856L13.9066 2.33152L11.2202 4.97011L10.9712 4.76087C10.1827 4.09783 9.17977 3.73234 8.14642 3.73234C5.7505 3.73234 3.8 5.64674 3.8 8C3.8 10.3533 5.7505 12.2677 8.14642 12.2677C9.8742 12.2677 11.2395 11.4008 11.8828 9.92391H7.79229V6.32201L15.7782 6.33288L15.8377 6.6087C16.2541 8.55027 15.9207 11.4062 14.2331 13.4497C12.8359 15.1413 10.7886 16 8.14642 16Z"
    fill="#0051c3" />
</svg>