<svg viewBox="0 0 20 22" fill="none" xmlns="http://www.w3.org/2000/svg">
  <path
    d="M9.36553 19.1192L7.75953 19.5513L7.93605 18.0239H6.80833L6.98485 19.5513L5.41349 19.1192L5.24563 20.1567L6.70108 20.2646L5.74987 21.4973L6.7657 21.9917L7.35587 20.7005L8.02731 21.9994L9.0045 21.4973L8.04463 20.2646L9.50808 20.1657L9.36553 19.1192ZM16.2405 21.4979L17.2563 21.9923L17.8465 20.7012L18.5186 22L19.4958 21.4979L18.5359 20.2652L20 20.1663L19.8574 19.1198L18.2515 19.5519L18.4286 18.0245H17.2996L17.4768 19.5519L15.9054 19.1198L15.7376 20.1574L17.193 20.2652L16.2405 21.4979ZM0.502915 21.4979L1.5194 21.9923L2.10891 20.7012L2.78035 22L3.75753 21.4979L2.79767 20.2652L4.26178 20.1663L4.1199 19.1198L2.51391 19.5519L2.69043 18.0245H1.5627L1.73922 19.5519L0.167859 19.1198L0 20.1574L1.45545 20.2652L0.502915 21.4979ZM13.1817 18.0239H12.054L12.2311 19.5513L10.6598 19.1192L10.4919 20.1567L11.9474 20.2646L10.9955 21.4973L12.0113 21.9917L12.6015 20.7005L13.2736 21.9994L14.2508 21.4973L13.2909 20.2646L14.7544 20.1657L14.6125 19.1192L13.0065 19.5513L13.1817 18.0239ZM5.8025 12.0369H13.608C13.8245 12.0369 14.009 11.9637 14.1609 11.8173C14.3127 11.6709 14.3887 11.4937 14.3887 11.2844V6.77027C14.3887 6.56161 14.3127 6.38312 14.1609 6.23738C14.0083 6.09099 13.8245 6.0178 13.608 6.0178H7.62365V3.51065C7.62365 2.95657 7.82681 2.48404 8.2338 2.0924C8.64013 1.70075 9.13106 1.50429 9.70525 1.50429C10.2801 1.50429 10.7704 1.70011 11.1767 2.0924C11.5837 2.48404 11.7868 2.95722 11.7868 3.51065C11.7868 3.64612 11.8381 3.76426 11.9407 3.86313C12.044 3.96265 12.1659 4.01208 12.3071 4.01208H12.8273C12.9685 4.01208 13.0898 3.962 13.193 3.86313C13.2956 3.76426 13.3475 3.64676 13.3475 3.51065C13.3475 2.54375 12.9912 1.71745 12.2784 1.03047C11.5657 0.343489 10.7084 0 9.70525 0C8.70275 0 7.8448 0.343489 7.13206 1.03047C6.41932 1.71745 6.06295 2.54375 6.06295 3.51065V6.01844H5.8025C5.58534 6.01844 5.4015 6.09164 5.24963 6.23802C5.09775 6.3844 5.02182 6.56225 5.02182 6.77091V11.2851C5.02182 11.4944 5.09775 11.6716 5.24963 11.818C5.4015 11.9637 5.58601 12.0369 5.8025 12.0369Z"
    fill="#0051c3" />
</svg>