<svg xmlns="http://www.w3.org/2000/svg" fill="#0051c3" viewBox="0 0 64 64">
  <path d="m48.17 13.61 2.15-3.37C40.61 4 24.72 4 14.9 10.24l2.1 3.38c8.67-5.47 22.63-5.47 31.17-.01Z"/>
  <path d="M32.52 11.57a30.67 30.67 0 0 0-25 13.28L10.89 27a27 27 0 0 1 21.63-11.43c12 0 19.68 7.46 22.08 11.4L58 24.9c-2.78-4.61-11.71-13.33-25.48-13.33Z"/>
  <path d="M32.53 17.75c-7.91 0-14.57 3.43-18.74 9.66a25.16 25.16 0 0 0-2.13 23.3l3.7-1.52a21.12 21.12 0 0 1 1.75-19.56 17.93 17.93 0 0 1 15.42-7.88c13.91 0 17.66 11.41 17.93 15.81.31 5.16-2.64 5.77-3.2 5.83l-.32.06a6.07 6.07 0 0 1-4.33-.67c-1.13-.79-1.83-2.24-2.07-4.3-.65-5.65-5-8-8.7-7.78-4.07.24-8.45 3.53-8.45 10.21 0 9.63 8.84 17.38 17 19l.8-3.92c-5.77-1.13-13.8-6.99-13.8-15.08 0-4.11 2.35-6.08 4.68-6.21 1.83-.11 4.12.94 4.5 4.24.38 3.3 1.66 5.68 3.8 7.15a10 10 0 0 0 7.37 1.27c2.6-.29 7.16-2.72 6.71-10-.33-5.49-4.92-19.61-21.92-19.61Z"/>
  <path d="M21.38 36.16C23 31 26.77 27.93 31.53 27.93c11.19 0 12.06 9.64 12.06 12.59h4c0-7.65-4.2-16.59-16.06-16.59-6.51 0-11.86 4.24-14 11a21.24 21.24 0 0 0 8.26 23.58l2.25-3.31a17.2 17.2 0 0 1-6.66-19.04Z"/>
  <path d="M37.25 47.12A11.002 11.002 0 0 1 34 38.79h-4A15.082 15.082 0 0 0 34.49 50a18.46 18.46 0 0 0 12.76 4.64h1.09l-.19-4c-4.36.2-8.34-1.08-10.9-3.52Z"/>
</svg>
