<svg viewBox="0 0 64 65" fill="none" xmlns="http://www.w3.org/2000/svg">
    <path
        d="M50.9999 26.2923C49.4942 26.2956 48.0297 26.7837 46.823 27.6842C45.6163 28.5847 44.7316 29.8498 44.2999 31.2923H38.7059C38.3731 30.1792 37.7688 29.1664 36.9473 28.3449C36.1258 27.5234 35.113 26.9191 33.9999 26.5863V19.9973C35.6112 19.5169 36.9958 18.4725 37.9004 17.0552C38.8051 15.6379 39.1693 13.9423 38.9266 12.2785C38.6838 10.6147 37.8503 9.09383 36.5784 7.99406C35.3066 6.89428 33.6813 6.28906 31.9999 6.28906C30.3185 6.28906 28.6932 6.89428 27.4214 7.99406C26.1495 9.09383 25.316 10.6147 25.0732 12.2785C24.8305 13.9423 25.1947 15.6379 26.0994 17.0552C27.004 18.4725 28.3886 19.5169 29.9999 19.9973V26.5863C28.8868 26.9191 27.874 27.5234 27.0525 28.3449C26.2311 29.1664 25.6267 30.1792 25.2939 31.2923H19.6999C19.2195 29.6809 18.1751 28.2964 16.7578 27.3917C15.3405 26.4871 13.6449 26.1229 11.9811 26.3656C10.3173 26.6083 8.79647 27.4419 7.6967 28.7137C6.59692 29.9856 5.9917 31.6108 5.9917 33.2923C5.9917 34.9737 6.59692 36.5989 7.6967 37.8708C8.79647 39.1427 10.3173 39.9762 11.9811 40.2189C13.6449 40.4617 15.3405 40.0974 16.7578 39.1928C18.1751 38.2882 19.2195 36.9036 19.6999 35.2923H25.2889C25.6223 36.4058 26.2275 37.4189 27.0499 38.2404C27.8722 39.0619 28.886 39.666 29.9999 39.9983V44.7763C28.3886 45.2567 27.004 46.301 26.0994 47.7183C25.1947 49.1357 24.8305 50.8313 25.0732 52.4951C25.316 54.1589 26.1495 55.6797 27.4214 56.7795C28.6932 57.8792 30.3185 58.4845 31.9999 58.4845C33.6813 58.4845 35.3066 57.8792 36.5784 56.7795C37.8503 55.6797 38.6838 54.1589 38.9266 52.4951C39.1693 50.8313 38.8051 49.1357 37.9004 47.7183C36.9958 46.301 35.6112 45.2567 33.9999 44.7763V39.9983C35.1129 39.6653 36.1256 39.0609 36.9471 38.2394C37.7685 37.418 38.3729 36.4052 38.7059 35.2923H44.2999C44.6709 36.5367 45.3808 37.6534 46.3501 38.5175C47.3194 39.3816 48.51 39.959 49.7887 40.1852C51.0674 40.4114 52.3838 40.2775 53.5908 39.7984C54.7977 39.3193 55.8476 38.5139 56.623 37.4723C57.3985 36.4307 57.8689 35.1939 57.9817 33.9002C58.0944 32.6066 57.8451 31.307 57.2617 30.1469C56.6782 28.9869 55.7835 28.0119 54.6777 27.3312C53.5718 26.6505 52.2985 26.2907 50.9999 26.2923ZM12.9999 36.2923C12.4066 36.2923 11.8265 36.1163 11.3332 35.7867C10.8398 35.457 10.4553 34.9885 10.2283 34.4403C10.0012 33.8921 9.94179 33.2889 10.0575 32.707C10.1733 32.125 10.459 31.5905 10.8786 31.1709C11.2981 30.7514 11.8327 30.4657 12.4146 30.3499C12.9966 30.2342 13.5998 30.2936 14.148 30.5206C14.6961 30.7477 15.1647 31.1322 15.4943 31.6256C15.824 32.1189 15.9999 32.6989 15.9999 33.2923C15.9999 34.0879 15.6838 34.851 15.1212 35.4136C14.5586 35.9762 13.7956 36.2923 12.9999 36.2923ZM28.9999 13.2923C28.9999 12.6989 29.1758 12.1189 29.5055 11.6256C29.8351 11.1322 30.3037 10.7477 30.8519 10.5206C31.4 10.2936 32.0032 10.2342 32.5852 10.3499C33.1671 10.4657 33.7017 10.7514 34.1212 11.1709C34.5408 11.5905 34.8265 12.1251 34.9423 12.707C35.058 13.2889 34.9986 13.8921 34.7715 14.4403C34.5445 14.9885 34.16 15.457 33.6666 15.7867C33.1733 16.1163 32.5932 16.2923 31.9999 16.2923C31.2043 16.2923 30.4412 15.9762 29.8786 15.4136C29.316 14.851 28.9999 14.0879 28.9999 13.2923ZM34.9999 51.4813C34.9999 52.0746 34.824 52.6546 34.4943 53.148C34.1647 53.6413 33.6961 54.0258 33.148 54.2529C32.5998 54.48 31.9966 54.5394 31.4146 54.4236C30.8327 54.3079 30.2981 54.0221 29.8786 53.6026C29.459 53.183 29.1733 52.6485 29.0575 52.0665C28.9418 51.4846 29.0012 50.8814 29.2283 50.3332C29.4553 49.785 29.8398 49.3165 30.3332 48.9869C30.8265 48.6572 31.4066 48.4813 31.9999 48.4813C32.7956 48.4813 33.5586 48.7973 34.1212 49.3599C34.6838 49.9226 34.9999 50.6856 34.9999 51.4813ZM50.9999 36.2923C50.4066 36.2923 49.8265 36.1163 49.3332 35.7867C48.8398 35.457 48.4553 34.9885 48.2283 34.4403C48.0012 33.8921 47.9418 33.2889 48.0575 32.707C48.1733 32.125 48.459 31.5905 48.8786 31.1709C49.2981 30.7514 49.8327 30.4657 50.4146 30.3499C50.9966 30.2342 51.5998 30.2936 52.148 30.5206C52.6961 30.7477 53.1647 31.1322 53.4943 31.6256C53.824 32.1189 53.9999 32.6989 53.9999 33.2923C53.9999 34.0879 53.6838 34.851 53.1212 35.4136C52.5586 35.9762 51.7956 36.2923 50.9999 36.2923Z"
        fill="#0051c3" />
</svg>