<svg viewBox="0 0 100 100" fill="none" xmlns="http://www.w3.org/2000/svg">
  <path
    d="M75 14.0625H25L21.875 17.1875V81.25L25 84.375H75L78.125 81.25V17.1875L75 14.0625ZM71.875 78.125H28.125V20.3125H43.75V22.3438H56.25V20.3125H71.875V78.125Z"
    fill="#0051c3" />
  <path
    d="M44 45.699L48.904 45.0332L48.9062 49.7489L44.0046 49.7767L44 45.699ZM48.9017 50.2923L48.9055 55.0122L44.0039 54.3404L44.0036 50.2607L48.9017 50.2923ZM49.4962 44.9461L55.9985 44V49.689L49.4962 49.7404V44.9461ZM56 50.3367L55.9985 56L49.4962 55.0851L49.4871 50.3261L56 50.3367Z"
    fill="#0051c3" />
</svg>