<svg viewBox="0 0 100 100" fill="none" xmlns="http://www.w3.org/2000/svg">
  <path
    d="M65.625 21.875H34.375L31.25 25V75L34.375 78.125H65.625L68.75 75V25L65.625 21.875ZM62.5 71.875H37.5V28.125H44.7656V29.9375H55.2344V28.125H62.5V71.875Z"
    fill="#0051c3" />
  <path
    d="M44 45.699L48.904 45.0332L48.9062 49.7489L44.0046 49.7767L44 45.699ZM48.9017 50.2923L48.9055 55.0122L44.0039 54.3404L44.0036 50.2607L48.9017 50.2923ZM49.4962 44.9461L55.9985 44V49.689L49.4962 49.7404V44.9461ZM56 50.3367L55.9985 56L49.4962 55.0851L49.4871 50.3261L56 50.3367Z"
    fill="#0051c3" />
</svg>