<svg viewBox="0 0 100 100" fill="none" xmlns="http://www.w3.org/2000/svg">
  <path
    d="M81.25 71.875V32.8125L78.125 29.6875H21.875L18.75 32.8125V71.875H9.375L12.5 78.125H87.5L90.625 71.875H81.25ZM25 71.875V35.9375H75V71.875H25Z"
    fill="#0051c3" />
  <path
    d="M45 49.699L49.904 49.0332L49.9062 53.7489L45.0046 53.7767L45 49.699ZM49.9017 54.2923L49.9055 59.0122L45.0039 58.3404L45.0036 54.2607L49.9017 54.2923ZM50.4962 48.9461L56.9985 48V53.689L50.4962 53.7404V48.9461ZM57 54.3367L56.9985 60L50.4962 59.0851L50.4871 54.3261L57 54.3367Z"
    fill="#0051c3" />
</svg>