<svg viewBox="0 0 1057 122" fill="none" xmlns="http://www.w3.org/2000/svg">
    <path
        d="M176.58 50.7799C175.13 42.5099 168.58 37.7799 160.15 37.7799C148.85 37.7799 140.89 46.4499 140.89 62.0399C140.89 77.8999 148.89 86.2999 160.12 86.2999C168.38 86.2999 174.99 81.74 176.58 73.65L189.2 73.7101C187.27 86.9001 176.38 97.5299 159.95 97.5299C141.73 97.5299 128.3 84.3399 128.3 62.0399C128.3 39.7399 141.9 26.5499 159.95 26.5499C175.27 26.5499 187.07 35.4499 189.2 50.8099L176.58 50.7799Z"
        fill="#222222" />
    <path d="M210.95 96.5599H198.73V27.4601H210.95V96.5599Z" fill="#222222" />
    <path
        d="M219.84 70.85C219.84 54.79 229.49 44.0599 244.68 44.0599C259.87 44.0599 269.51 54.79 269.51 70.85C269.51 86.91 259.86 97.5699 244.68 97.5699C229.5 97.5699 219.84 86.87 219.84 70.85ZM257.12 70.85C257.12 61.36 253.01 53.7699 244.74 53.7699C236.47 53.7699 232.23 61.36 232.23 70.85C232.23 80.34 236.34 87.85 244.74 87.85C253.14 87.85 257.12 80.2899 257.12 70.8199V70.85Z"
        fill="#222222" />
    <path
        d="M311.43 44.7399H323.64V96.5599H311.8V87.35H311.26C308.9 93.15 303.44 97.2299 295.68 97.2299C285.49 97.2299 278.4 90.2299 278.4 77.7299V44.7299H290.61V75.83C290.61 82.41 294.53 86.5599 300.4 86.5599C305.8 86.5599 311.4 82.6499 311.4 74.7499L311.43 44.7399Z"
        fill="#222222" />
    <path
        d="M332.64 70.7101C332.64 53.4401 342.05 44.0599 354.03 44.0599C363.17 44.0599 366.98 49.5599 368.84 53.3099H369.35V27.4601H381.59V96.5599H369.59V88.39H368.85C366.93 92.17 362.91 97.4698 354.01 97.4698C341.78 97.4698 332.64 87.7901 332.64 70.7101ZM369.58 70.65C369.58 60.59 365.26 54.08 357.4 54.08C349.27 54.08 345.09 61 345.09 70.65C345.09 80.3 349.34 87.4501 357.4 87.4501C365.2 87.4501 369.58 80.7 369.58 70.65Z"
        fill="#222222" />
    <path
        d="M419.47 54.1799H408.71V96.5598H396.49V54.1799H388.84V44.7398H396.49V39.8399C396.49 29.3899 403.68 24.2197 412.69 24.2197C415.838 24.2105 418.969 24.6897 421.97 25.6399L419.5 35.0899C418.029 34.6172 416.495 34.3678 414.95 34.3499C410.39 34.3499 408.71 36.6099 408.71 40.6499V44.7398H419.47V54.1799Z"
        fill="#222222" />
    <path d="M439.84 96.5599H427.62V27.4601H439.84V96.5599Z" fill="#222222" />
    <path
        d="M448.53 82.0199C448.53 70.3399 458.15 67.3399 468.2 66.2599C477.34 65.2599 481.02 65.11 481.02 61.6V61.4C481.02 56.31 477.92 53.4 472.25 53.4C466.25 53.4 462.84 56.3999 461.62 59.9799L450.22 58.36C452.92 48.91 461.28 44.0499 472.22 44.0499C482.11 44.0499 493.27 48.17 493.27 61.86V96.5499H481.53V89.4301H481.13C478.9 93.7801 474.04 97.59 465.91 97.59C455.99 97.6 448.53 92.1999 448.53 82.0199ZM481.05 78.0199V71.91C479.47 73.19 473.05 74.0001 469.85 74.4401C464.39 75.2201 460.31 77.17 460.31 81.86C460.31 86.35 463.95 88.6801 469.04 88.6801C476.4 88.6301 481.05 83.7398 481.05 77.9698V78.0199Z"
        fill="#222222" />
    <path
        d="M504.12 44.74H515.96V53.3701H516.5C517.298 50.6145 518.985 48.2003 521.299 46.5037C523.612 44.807 526.422 43.9231 529.29 43.99C530.756 43.9943 532.221 44.1081 533.67 44.3301V55.5701C531.82 55.1009 529.919 54.8624 528.01 54.8601C521.29 54.8601 516.33 59.5101 516.33 66.0901V96.5601H504.12V44.74Z"
        fill="#222222" />
    <path
        d="M535.99 70.9501C535.99 54.9501 545.67 44.0599 560.52 44.0599C573.27 44.0599 584.2 52.0599 584.2 70.2399V73.9899H548.1C548.2 82.8599 553.43 88.0499 561.33 88.0499C566.59 88.0499 570.64 85.76 572.33 81.37L583.74 82.66C581.58 91.66 573.28 97.5699 561.2 97.5699C545.54 97.5699 535.99 87.2101 535.99 70.9501ZM572.5 65.7499C572.43 58.7499 567.7 53.58 560.69 53.58C553.4 53.58 548.51 59.1399 548.14 65.7499H572.5Z"
        fill="#222222" />
    <path d="M614.51 88.7599L649.94 37.9601H614.31V27.4601H665.45V35.2599L630.06 86.09H665.66V96.59H614.51V88.7599Z"
        fill="#222222" />
    <path
        d="M672.18 70.9501C672.18 54.9501 681.87 44.0599 696.71 44.0599C709.46 44.0599 720.39 52.0599 720.39 70.2399V73.9899H684.26C684.37 82.8599 689.6 88.0499 697.49 88.0499C702.75 88.0499 706.8 85.76 708.49 81.37L719.9 82.66C717.74 91.66 709.44 97.5699 697.36 97.5699C681.73 97.5699 672.18 87.2101 672.18 70.9501ZM708.69 65.7499C708.62 58.7499 703.9 53.58 696.88 53.58C689.59 53.58 684.7 59.1399 684.33 65.7499H708.69Z"
        fill="#222222" />
    <path
        d="M727.86 44.7399H739.71V53.37H740.25C741.039 50.6107 742.722 48.1918 745.035 46.4938C747.349 44.7958 750.161 43.9149 753.03 43.9899C754.5 43.9947 755.967 44.1084 757.42 44.33V55.57C755.567 55.1009 753.662 54.8624 751.75 54.86C745.04 54.86 740.08 59.51 740.08 66.09V96.56H727.86V44.7399Z"
        fill="#222222" />
    <path
        d="M758.31 70.85C758.31 54.79 767.96 44.0599 783.14 44.0599C798.32 44.0599 807.97 54.79 807.97 70.85C807.97 86.91 798.32 97.5699 783.14 97.5699C767.96 97.5699 758.31 86.87 758.31 70.85ZM795.59 70.85C795.59 61.36 791.47 53.7699 783.21 53.7699C774.95 53.7699 770.69 61.36 770.69 70.85C770.69 80.34 774.81 87.85 783.21 87.85C791.61 87.85 795.59 80.2899 795.59 70.8199V70.85Z"
        fill="#222222" />
    <path d="M833.68 27.4601H888.8V37.9601H867.45V96.5599H855.03V37.9601H833.68V27.4601Z" fill="#222222" />
    <path
        d="M890.61 44.74H902.45V53.3701H902.99C903.788 50.6145 905.475 48.2003 907.789 46.5037C910.102 44.807 912.912 43.9231 915.78 43.99C917.246 43.9943 918.71 44.1081 920.16 44.3301V55.5701C918.306 55.1003 916.402 54.8618 914.49 54.8601C907.78 54.8601 902.82 59.5101 902.82 66.0901V96.5601H890.61V44.74Z"
        fill="#222222" />
    <path
        d="M958.47 44.7399H970.68V96.5599H958.84V87.35H958.26C955.9 93.15 950.43 97.2299 942.67 97.2299C932.49 97.2299 925.4 90.2299 925.4 77.7299V44.7299H937.61V75.83C937.61 82.41 941.53 86.5599 947.4 86.5599C952.8 86.5599 958.4 82.6499 958.4 74.7499L958.47 44.7399Z"
        fill="#222222" />
    <path
        d="M1010.2 59.65C1009.26 56.24 1006.29 53.17 1000.66 53.17C995.56 53.17 991.66 55.6 991.72 59.11C991.72 62.11 993.77 63.93 999.04 65.11L1007.88 66.9999C1017.66 69.1299 1022.42 73.6499 1022.45 80.9999C1022.45 90.8199 1013.27 97.5299 1000.32 97.5299C987.6 97.5299 979.6 91.89 978.09 82.38L989.99 81.2299C991.04 85.8899 994.68 88.3199 1000.28 88.3199C1006.09 88.3199 1009.93 85.65 1009.93 82.11C1009.93 79.18 1007.71 77.2501 1002.93 76.2101L994.09 74.35C984.09 72.29 979.48 67.2999 979.52 59.7399C979.52 50.1599 987.98 44.0199 1000.47 44.0199C1012.61 44.0199 1019.63 49.62 1021.32 58.39L1010.2 59.65Z"
        fill="#222222" />
    <path
        d="M1055.56 54.1801H1045.34V80.9698C1045.34 85.8998 1047.8 86.9698 1050.87 86.9698C1052.08 86.9533 1053.28 86.7922 1054.45 86.4899L1056.51 96.0399C1054.19 96.7993 1051.76 97.2071 1049.32 97.2499C1040.15 97.5299 1033.06 92.7299 1033.13 82.9799V54.17H1025.77V44.7299H1033.13V32.3099H1045.34V44.7299H1055.56V54.1801Z"
        fill="#222222" />
    <path
        d="M20.03 59.91C27.26 59.5 30.1702 56.3499 30.1702 48.0499V15.1901C24.0633 19.0817 17.1976 21.6281 10.03 22.66L0.0300293 24.0599V58.4899C0.0300293 58.9699 0.0300293 59.44 0.0300293 59.91H20.03Z"
        fill="#FBAD41" />
    <path
        d="M30.1702 77.8099C30.1702 69.1099 26.9502 66.07 18.9202 65.91H0.460205C3.3302 89.03 19.1502 104.43 30.1702 112.52V77.8099Z"
        fill="#FBAD41" />
    <path
        d="M82.4001 22.66C72.1107 21.184 62.5205 16.5911 54.9202 9.49988L46.1902 -0.00012207L37.55 9.45007C37.45 9.55007 36.9802 10.0299 36.1702 10.7399V48.35C36.2402 56.42 39.1698 59.5 46.2898 59.91H70.76L60.9099 50.0699L65.1599 45.83L82.24 62.91L65.1599 79.9999L60.9099 75.7599L70.76 65.91H47.4099C39.4699 66.07 36.2402 69.0399 36.1702 77.5099V116.51C38.8502 118.16 40.66 119.07 40.99 119.23L46.22 121.78L51.4402 119.23C53.1102 118.41 92.4402 98.7501 92.4402 58.4401V24.09L82.4001 22.66Z"
        fill="#F6821F" />
</svg>