<svg fill="#0051c3" xmlns="http://www.w3.org/2000/svg" viewBox="0 0 48 48"><path d="M34.651 4.5h-21.3a8.857 8.857 0 0 0-8.85 8.85v21.3a8.858 8.858 0 0 0 8.85 8.85h21.3a8.858 8.858 0 0 0 8.85-8.85v-21.3a8.858 8.858 0 0 0-8.85-8.85Zm5.85 30.15a5.858 5.858 0 0 1-5.85 5.85h-21.3a5.858 5.858 0 0 1-5.85-5.85v-21.3a5.858 5.858 0 0 1 5.85-5.85h21.3a5.858 5.858 0 0 1 5.85 5.85v21.3Z"/><path d="M34.651 4.5h-21.3a8.857 8.857 0 0 0-8.85 8.85v21.3a8.858 8.858 0 0 0 8.85 8.85h21.3a8.858 8.858 0 0 0 8.85-8.85v-21.3a8.858 8.858 0 0 0-8.85-8.85Zm5.85 30.15a5.858 5.858 0 0 1-5.85 5.85h-21.3a5.858 5.858 0 0 1-5.85-5.85v-21.3a5.858 5.858 0 0 1 5.85-5.85h21.3a5.858 5.858 0 0 1 5.85 5.85v21.3Z"/><path d="M34.651 4.5h-21.3a8.857 8.857 0 0 0-8.85 8.85v21.3a8.858 8.858 0 0 0 8.85 8.85h21.3a8.858 8.858 0 0 0 8.85-8.85v-21.3a8.858 8.858 0 0 0-8.85-8.85Zm5.85 30.15a5.858 5.858 0 0 1-5.85 5.85h-21.3a5.858 5.858 0 0 1-5.85-5.85v-21.3a5.858 5.858 0 0 1 5.85-5.85h21.3a5.858 5.858 0 0 1 5.85 5.85v21.3Z"/><path d="M24.751 13.433h-1.5l-8.025 4.635-.75 1.297v9.27l.75 1.298 8.025 4.635h1.5l8.025-4.635.75-1.298v-9.27l-.75-1.297-8.025-4.635Zm5.775 14.317-6.525 3.75-6.525-3.75v-7.5l6.525-3.75 6.525 3.75v7.5Z"/><path d="M24.751 13.433h-1.5l-8.025 4.635-.75 1.297v9.27l.75 1.298 8.025 4.635h1.5l8.025-4.635.75-1.298v-9.27l-.75-1.297-8.025-4.635Zm5.775 14.317-6.525 3.75-6.525-3.75v-7.5l6.525-3.75 6.525 3.75v7.5Z"/><path d="M24.751 13.433h-1.5l-8.025 4.635-.75 1.297v9.27l.75 1.298 8.025 4.635h1.5l8.025-4.635.75-1.298v-9.27l-.75-1.297-8.025-4.635Zm5.775 14.317-6.525 3.75-6.525-3.75v-7.5l6.525-3.75 6.525 3.75v7.5Z"/></svg>
