<svg fill="#0051c3" xmlns="http://www.w3.org/2000/svg" viewBox="0 0 48 48"><path d="M36.82 19.2H26.723l3.15-17.82-2.73-1.088L9.932 26.25l1.252 2.325h10.35l-2.827 18 2.745 1.035 16.635-26.108-1.268-2.302ZM22.786 39.982l1.965-12.652-1.5-1.733h-9.278l11.693-17.64-2.205 12.48 1.5 1.763h9.15L22.787 39.982Z"/><path d="M36.82 19.2H26.723l3.15-17.82-2.73-1.088L9.932 26.25l1.252 2.325h10.35l-2.827 18 2.745 1.035 16.635-26.108-1.268-2.302ZM22.786 39.982l1.965-12.652-1.5-1.733h-9.278l11.693-17.64-2.205 12.48 1.5 1.763h9.15L22.787 39.982Z"/><path d="M36.82 19.2H26.723l3.15-17.82-2.73-1.088L9.932 26.25l1.252 2.325h10.35l-2.827 18 2.745 1.035 16.635-26.108-1.268-2.302ZM22.786 39.982l1.965-12.652-1.5-1.733h-9.278l11.693-17.64-2.205 12.48 1.5 1.763h9.15L22.787 39.982Z"/></svg>
