<svg fill="#0051c3" xmlns="http://www.w3.org/2000/svg" viewBox="0 0 48 55"><path fill-rule="evenodd" clip-rule="evenodd" d="m16.542 9.612 14.91 8.61v17.214l-14.91-8.606V9.612Z"/><path fill-rule="evenodd" clip-rule="evenodd" d="m16.542 9.612 14.91 8.61v17.214l-14.91-8.606V9.612Z"/><path fill-rule="evenodd" clip-rule="evenodd" d="m16.542 9.612 14.91 8.61v17.214l-14.91-8.606V9.612Z"/><path fill-rule="evenodd" clip-rule="evenodd" d="M33.089 18.221v17.215l14.91-8.606V9.612l-14.91 8.61Z"/><path fill-rule="evenodd" clip-rule="evenodd" d="M33.089 18.221v17.215l14.91-8.606V9.612l-14.91 8.61Z"/><path fill-rule="evenodd" clip-rule="evenodd" d="M33.089 18.221v17.215l14.91-8.606V9.612l-14.91 8.61Z"/><path fill-rule="evenodd" clip-rule="evenodd" d="M0 0v17.219l14.91 8.61V8.608L0 0Z"/><path fill-rule="evenodd" clip-rule="evenodd" d="M0 0v17.219l14.91 8.61V8.608L0 0Z"/><path fill-rule="evenodd" clip-rule="evenodd" d="M0 0v17.219l14.91 8.61V8.608L0 0Z"/><path fill-rule="evenodd" clip-rule="evenodd" d="m16.542 45.93 14.91 8.61V37.325l-14.91-8.61v17.216Z"/><path fill-rule="evenodd" clip-rule="evenodd" d="m16.542 45.93 14.91 8.61V37.325l-14.91-8.61v17.216Z"/><path fill-rule="evenodd" clip-rule="evenodd" d="m16.542 45.93 14.91 8.61V37.325l-14.91-8.61v17.216Z"/></svg>
